<mxfile host="app.diagrams.net" agent="Mozilla/5.0 (Windows NT 10.0; Win64; x64) AppleWebKit/537.36 (KHTML, like Gecko) Chrome/132.0.0.0 Safari/537.36" version="26.0.9">
  <diagram name="Страница — 1" id="2XN0GiN-zWs_is5mjBxY">
    <mxGraphModel dx="2074" dy="1132" grid="1" gridSize="10" guides="1" tooltips="1" connect="1" arrows="1" fold="1" page="1" pageScale="1" pageWidth="827" pageHeight="1169" math="0" shadow="0">
      <root>
        <mxCell id="0" />
        <mxCell id="1" parent="0" />
        <mxCell id="jcT04ShCUDrUNS0wLq2s-3" value="" style="edgeStyle=orthogonalEdgeStyle;rounded=0;orthogonalLoop=1;jettySize=auto;html=1;" edge="1" parent="1" source="jcT04ShCUDrUNS0wLq2s-1" target="jcT04ShCUDrUNS0wLq2s-2">
          <mxGeometry relative="1" as="geometry" />
        </mxCell>
        <mxCell id="jcT04ShCUDrUNS0wLq2s-1" value="Початок" style="rounded=1;whiteSpace=wrap;html=1;arcSize=38;" vertex="1" parent="1">
          <mxGeometry x="370" y="40" width="70" height="30" as="geometry" />
        </mxCell>
        <mxCell id="jcT04ShCUDrUNS0wLq2s-5" value="" style="edgeStyle=orthogonalEdgeStyle;rounded=0;orthogonalLoop=1;jettySize=auto;html=1;" edge="1" parent="1" source="jcT04ShCUDrUNS0wLq2s-2" target="jcT04ShCUDrUNS0wLq2s-4">
          <mxGeometry relative="1" as="geometry" />
        </mxCell>
        <mxCell id="jcT04ShCUDrUNS0wLq2s-2" value="import random as rn" style="rounded=0;whiteSpace=wrap;html=1;" vertex="1" parent="1">
          <mxGeometry x="347" y="90" width="116" height="20" as="geometry" />
        </mxCell>
        <mxCell id="jcT04ShCUDrUNS0wLq2s-7" value="" style="edgeStyle=orthogonalEdgeStyle;rounded=0;orthogonalLoop=1;jettySize=auto;html=1;" edge="1" parent="1" source="jcT04ShCUDrUNS0wLq2s-4" target="jcT04ShCUDrUNS0wLq2s-6">
          <mxGeometry relative="1" as="geometry" />
        </mxCell>
        <mxCell id="jcT04ShCUDrUNS0wLq2s-4" value="m = rn.randint(1, 7)&#xa;n = rn.randint(1, 7)" style="rounded=0;whiteSpace=wrap;html=1;" vertex="1" parent="1">
          <mxGeometry x="345" y="130" width="120" height="40" as="geometry" />
        </mxCell>
        <mxCell id="jcT04ShCUDrUNS0wLq2s-8" style="edgeStyle=orthogonalEdgeStyle;rounded=0;orthogonalLoop=1;jettySize=auto;html=1;" edge="1" parent="1" source="jcT04ShCUDrUNS0wLq2s-6" target="jcT04ShCUDrUNS0wLq2s-9">
          <mxGeometry relative="1" as="geometry">
            <mxPoint x="405" y="270" as="targetPoint" />
          </mxGeometry>
        </mxCell>
        <mxCell id="jcT04ShCUDrUNS0wLq2s-6" value="arr2D = [[rn.randint(-1000, 1000) for k in range(n)] for i in range(m)]" style="whiteSpace=wrap;html=1;rounded=0;" vertex="1" parent="1">
          <mxGeometry x="222.5" y="190" width="365" height="50" as="geometry" />
        </mxCell>
        <mxCell id="jcT04ShCUDrUNS0wLq2s-10" style="edgeStyle=orthogonalEdgeStyle;rounded=0;orthogonalLoop=1;jettySize=auto;html=1;" edge="1" parent="1" source="jcT04ShCUDrUNS0wLq2s-9" target="jcT04ShCUDrUNS0wLq2s-11">
          <mxGeometry relative="1" as="geometry">
            <mxPoint x="405" y="330" as="targetPoint" />
          </mxGeometry>
        </mxCell>
        <mxCell id="jcT04ShCUDrUNS0wLq2s-9" value="m (рядків):{m}\nn (стовпців):{n}\nДвовимірний масив:" style="shape=parallelogram;perimeter=parallelogramPerimeter;whiteSpace=wrap;html=1;fixedSize=1;" vertex="1" parent="1">
          <mxGeometry x="232.5" y="260" width="345" height="40" as="geometry" />
        </mxCell>
        <mxCell id="jcT04ShCUDrUNS0wLq2s-12" value="False" style="edgeStyle=orthogonalEdgeStyle;rounded=0;orthogonalLoop=1;jettySize=auto;html=1;entryX=1;entryY=0.5;entryDx=0;entryDy=0;" edge="1" parent="1" source="jcT04ShCUDrUNS0wLq2s-11" target="jcT04ShCUDrUNS0wLq2s-14">
          <mxGeometry relative="1" as="geometry">
            <mxPoint x="272.5" y="380" as="targetPoint" />
          </mxGeometry>
        </mxCell>
        <mxCell id="jcT04ShCUDrUNS0wLq2s-16" value="True" style="edgeStyle=orthogonalEdgeStyle;rounded=0;orthogonalLoop=1;jettySize=auto;html=1;entryX=0;entryY=0.5;entryDx=0;entryDy=0;" edge="1" parent="1" source="jcT04ShCUDrUNS0wLq2s-11" target="jcT04ShCUDrUNS0wLq2s-17">
          <mxGeometry relative="1" as="geometry">
            <mxPoint x="520" y="380" as="targetPoint" />
          </mxGeometry>
        </mxCell>
        <mxCell id="jcT04ShCUDrUNS0wLq2s-11" value="Останній елемент списку arr2D досягнено?" style="rhombus;whiteSpace=wrap;html=1;" vertex="1" parent="1">
          <mxGeometry x="337.5" y="330" width="135" height="100" as="geometry" />
        </mxCell>
        <mxCell id="jcT04ShCUDrUNS0wLq2s-15" style="edgeStyle=orthogonalEdgeStyle;rounded=0;orthogonalLoop=1;jettySize=auto;html=1;entryX=0.5;entryY=0;entryDx=0;entryDy=0;" edge="1" parent="1" source="jcT04ShCUDrUNS0wLq2s-14" target="jcT04ShCUDrUNS0wLq2s-11">
          <mxGeometry relative="1" as="geometry">
            <Array as="points">
              <mxPoint x="240" y="310" />
              <mxPoint x="405" y="310" />
            </Array>
          </mxGeometry>
        </mxCell>
        <mxCell id="jcT04ShCUDrUNS0wLq2s-14" value="Рядок" style="shape=parallelogram;perimeter=parallelogramPerimeter;whiteSpace=wrap;html=1;fixedSize=1;" vertex="1" parent="1">
          <mxGeometry x="200" y="360" width="70" height="40" as="geometry" />
        </mxCell>
        <mxCell id="jcT04ShCUDrUNS0wLq2s-18" value="False" style="edgeStyle=orthogonalEdgeStyle;rounded=0;orthogonalLoop=1;jettySize=auto;html=1;" edge="1" parent="1" source="jcT04ShCUDrUNS0wLq2s-17" target="jcT04ShCUDrUNS0wLq2s-19">
          <mxGeometry relative="1" as="geometry">
            <mxPoint x="597.5" y="480" as="targetPoint" />
          </mxGeometry>
        </mxCell>
        <mxCell id="jcT04ShCUDrUNS0wLq2s-17" value="Останній елемент списку arr2D досягнено?" style="rhombus;whiteSpace=wrap;html=1;" vertex="1" parent="1">
          <mxGeometry x="530" y="330" width="135" height="100" as="geometry" />
        </mxCell>
        <mxCell id="jcT04ShCUDrUNS0wLq2s-21" value="" style="edgeStyle=orthogonalEdgeStyle;rounded=0;orthogonalLoop=1;jettySize=auto;html=1;" edge="1" parent="1" source="jcT04ShCUDrUNS0wLq2s-19" target="jcT04ShCUDrUNS0wLq2s-20">
          <mxGeometry relative="1" as="geometry" />
        </mxCell>
        <mxCell id="jcT04ShCUDrUNS0wLq2s-19" value="negative = 0&#xa;    positive = 0&#xa;    zeros = 0" style="rounded=0;whiteSpace=wrap;html=1;" vertex="1" parent="1">
          <mxGeometry x="556.25" y="470" width="82.5" height="60" as="geometry" />
        </mxCell>
        <mxCell id="jcT04ShCUDrUNS0wLq2s-22" value="False" style="edgeStyle=orthogonalEdgeStyle;rounded=0;orthogonalLoop=1;jettySize=auto;html=1;" edge="1" parent="1" source="jcT04ShCUDrUNS0wLq2s-20" target="jcT04ShCUDrUNS0wLq2s-23">
          <mxGeometry relative="1" as="geometry">
            <mxPoint x="470" y="610" as="targetPoint" />
          </mxGeometry>
        </mxCell>
        <mxCell id="jcT04ShCUDrUNS0wLq2s-38" value="True" style="edgeStyle=orthogonalEdgeStyle;rounded=0;orthogonalLoop=1;jettySize=auto;html=1;" edge="1" parent="1" source="jcT04ShCUDrUNS0wLq2s-20" target="jcT04ShCUDrUNS0wLq2s-39">
          <mxGeometry relative="1" as="geometry">
            <mxPoint x="710" y="610" as="targetPoint" />
          </mxGeometry>
        </mxCell>
        <mxCell id="jcT04ShCUDrUNS0wLq2s-20" value="Останній елемент списку вкладеного в arr2D досягнено?" style="rhombus;whiteSpace=wrap;html=1;" vertex="1" parent="1">
          <mxGeometry x="530" y="560" width="135" height="100" as="geometry" />
        </mxCell>
        <mxCell id="jcT04ShCUDrUNS0wLq2s-24" value="True" style="edgeStyle=orthogonalEdgeStyle;rounded=0;orthogonalLoop=1;jettySize=auto;html=1;" edge="1" parent="1" source="jcT04ShCUDrUNS0wLq2s-23" target="jcT04ShCUDrUNS0wLq2s-25">
          <mxGeometry relative="1" as="geometry">
            <mxPoint x="454" y="690" as="targetPoint" />
          </mxGeometry>
        </mxCell>
        <mxCell id="jcT04ShCUDrUNS0wLq2s-29" value="False" style="edgeStyle=orthogonalEdgeStyle;rounded=0;orthogonalLoop=1;jettySize=auto;html=1;" edge="1" parent="1" source="jcT04ShCUDrUNS0wLq2s-23" target="jcT04ShCUDrUNS0wLq2s-27">
          <mxGeometry relative="1" as="geometry" />
        </mxCell>
        <mxCell id="jcT04ShCUDrUNS0wLq2s-23" value="k&amp;gt;0?" style="rhombus;whiteSpace=wrap;html=1;" vertex="1" parent="1">
          <mxGeometry x="430" y="590" width="47.5" height="40" as="geometry" />
        </mxCell>
        <mxCell id="jcT04ShCUDrUNS0wLq2s-26" style="edgeStyle=orthogonalEdgeStyle;rounded=0;orthogonalLoop=1;jettySize=auto;html=1;entryX=0.5;entryY=1;entryDx=0;entryDy=0;" edge="1" parent="1" source="jcT04ShCUDrUNS0wLq2s-25" target="jcT04ShCUDrUNS0wLq2s-20">
          <mxGeometry relative="1" as="geometry" />
        </mxCell>
        <mxCell id="jcT04ShCUDrUNS0wLq2s-25" value="positive += 1" style="rounded=0;whiteSpace=wrap;html=1;" vertex="1" parent="1">
          <mxGeometry x="414.75" y="680" width="78" height="40" as="geometry" />
        </mxCell>
        <mxCell id="jcT04ShCUDrUNS0wLq2s-33" value="False" style="edgeStyle=orthogonalEdgeStyle;rounded=0;orthogonalLoop=1;jettySize=auto;html=1;" edge="1" parent="1" source="jcT04ShCUDrUNS0wLq2s-27" target="jcT04ShCUDrUNS0wLq2s-32">
          <mxGeometry relative="1" as="geometry" />
        </mxCell>
        <mxCell id="jcT04ShCUDrUNS0wLq2s-35" value="True" style="edgeStyle=orthogonalEdgeStyle;rounded=0;orthogonalLoop=1;jettySize=auto;html=1;" edge="1" parent="1" source="jcT04ShCUDrUNS0wLq2s-27" target="jcT04ShCUDrUNS0wLq2s-34">
          <mxGeometry relative="1" as="geometry" />
        </mxCell>
        <mxCell id="jcT04ShCUDrUNS0wLq2s-27" value="k&amp;lt;0?" style="rhombus;whiteSpace=wrap;html=1;" vertex="1" parent="1">
          <mxGeometry x="330" y="590" width="47.5" height="40" as="geometry" />
        </mxCell>
        <mxCell id="jcT04ShCUDrUNS0wLq2s-37" style="edgeStyle=orthogonalEdgeStyle;rounded=0;orthogonalLoop=1;jettySize=auto;html=1;entryX=0.5;entryY=1;entryDx=0;entryDy=0;" edge="1" parent="1" source="jcT04ShCUDrUNS0wLq2s-32" target="jcT04ShCUDrUNS0wLq2s-20">
          <mxGeometry relative="1" as="geometry">
            <Array as="points">
              <mxPoint x="244" y="770" />
              <mxPoint x="598" y="770" />
            </Array>
          </mxGeometry>
        </mxCell>
        <mxCell id="jcT04ShCUDrUNS0wLq2s-32" value="zeros += 1" style="rounded=0;whiteSpace=wrap;html=1;" vertex="1" parent="1">
          <mxGeometry x="210" y="590" width="68.5" height="40" as="geometry" />
        </mxCell>
        <mxCell id="jcT04ShCUDrUNS0wLq2s-36" style="edgeStyle=orthogonalEdgeStyle;rounded=0;orthogonalLoop=1;jettySize=auto;html=1;entryX=0.5;entryY=1;entryDx=0;entryDy=0;" edge="1" parent="1" source="jcT04ShCUDrUNS0wLq2s-34" target="jcT04ShCUDrUNS0wLq2s-20">
          <mxGeometry relative="1" as="geometry" />
        </mxCell>
        <mxCell id="jcT04ShCUDrUNS0wLq2s-34" value="negative += 1" style="rounded=0;whiteSpace=wrap;html=1;" vertex="1" parent="1">
          <mxGeometry x="314.75" y="720" width="78" height="40" as="geometry" />
        </mxCell>
        <mxCell id="jcT04ShCUDrUNS0wLq2s-41" value="" style="edgeStyle=orthogonalEdgeStyle;rounded=0;orthogonalLoop=1;jettySize=auto;html=1;" edge="1" parent="1" source="jcT04ShCUDrUNS0wLq2s-39" target="jcT04ShCUDrUNS0wLq2s-40">
          <mxGeometry relative="1" as="geometry" />
        </mxCell>
        <mxCell id="jcT04ShCUDrUNS0wLq2s-39" value="Відсоток позитивних чисел: {round(positive*100/n, 2)}%\nВідсоток від&#39;ємних чисел:{round(negative*100/n, 2)}%\nВідсоток нульових чисел:{round(zeros*100/n, 2)}%\n" style="shape=parallelogram;perimeter=parallelogramPerimeter;whiteSpace=wrap;html=1;fixedSize=1;" vertex="1" parent="1">
          <mxGeometry x="710" y="525" width="250" height="170" as="geometry" />
        </mxCell>
        <mxCell id="jcT04ShCUDrUNS0wLq2s-42" value="False" style="edgeStyle=orthogonalEdgeStyle;rounded=0;orthogonalLoop=1;jettySize=auto;html=1;" edge="1" parent="1" source="jcT04ShCUDrUNS0wLq2s-40" target="jcT04ShCUDrUNS0wLq2s-43">
          <mxGeometry relative="1" as="geometry">
            <mxPoint x="720" y="340" as="targetPoint" />
          </mxGeometry>
        </mxCell>
        <mxCell id="jcT04ShCUDrUNS0wLq2s-52" value="True" style="edgeStyle=orthogonalEdgeStyle;rounded=0;orthogonalLoop=1;jettySize=auto;html=1;entryX=0;entryY=0.5;entryDx=0;entryDy=0;" edge="1" parent="1" source="jcT04ShCUDrUNS0wLq2s-40" target="jcT04ShCUDrUNS0wLq2s-47">
          <mxGeometry relative="1" as="geometry" />
        </mxCell>
        <mxCell id="jcT04ShCUDrUNS0wLq2s-40" value="Останній елемент діапазону від 0 до len(arr2D) досягнено?&lt;div&gt;(крок 2)&lt;/div&gt;" style="rhombus;whiteSpace=wrap;html=1;" vertex="1" parent="1">
          <mxGeometry x="758.75" y="380" width="152.5" height="110" as="geometry" />
        </mxCell>
        <mxCell id="jcT04ShCUDrUNS0wLq2s-50" style="edgeStyle=orthogonalEdgeStyle;rounded=0;orthogonalLoop=1;jettySize=auto;html=1;entryX=0;entryY=0.5;entryDx=0;entryDy=0;" edge="1" parent="1" source="jcT04ShCUDrUNS0wLq2s-43" target="jcT04ShCUDrUNS0wLq2s-40">
          <mxGeometry relative="1" as="geometry">
            <Array as="points">
              <mxPoint x="730" y="300" />
              <mxPoint x="730" y="435" />
            </Array>
          </mxGeometry>
        </mxCell>
        <mxCell id="jcT04ShCUDrUNS0wLq2s-43" value="i[k-1], i[k] = i[k], i[k-1]" style="rounded=0;whiteSpace=wrap;html=1;" vertex="1" parent="1">
          <mxGeometry x="775" y="270" width="120" height="60" as="geometry" />
        </mxCell>
        <mxCell id="jcT04ShCUDrUNS0wLq2s-46" value="False" style="edgeStyle=orthogonalEdgeStyle;rounded=0;orthogonalLoop=1;jettySize=auto;html=1;entryX=0;entryY=0.5;entryDx=0;entryDy=0;" edge="1" parent="1" source="jcT04ShCUDrUNS0wLq2s-47" target="jcT04ShCUDrUNS0wLq2s-49">
          <mxGeometry relative="1" as="geometry">
            <mxPoint x="935" y="440" as="targetPoint" />
          </mxGeometry>
        </mxCell>
        <mxCell id="jcT04ShCUDrUNS0wLq2s-53" value="True" style="edgeStyle=orthogonalEdgeStyle;rounded=0;orthogonalLoop=1;jettySize=auto;html=1;entryX=0.5;entryY=0;entryDx=0;entryDy=0;" edge="1" parent="1" source="jcT04ShCUDrUNS0wLq2s-47" target="jcT04ShCUDrUNS0wLq2s-54">
          <mxGeometry x="0.0076" relative="1" as="geometry">
            <mxPoint x="1067.5" y="550" as="targetPoint" />
            <mxPoint as="offset" />
          </mxGeometry>
        </mxCell>
        <mxCell id="jcT04ShCUDrUNS0wLq2s-47" value="Останній елемент списку arr2D досягнено?" style="rhombus;whiteSpace=wrap;html=1;" vertex="1" parent="1">
          <mxGeometry x="1000" y="385" width="135" height="100" as="geometry" />
        </mxCell>
        <mxCell id="jcT04ShCUDrUNS0wLq2s-48" style="edgeStyle=orthogonalEdgeStyle;rounded=0;orthogonalLoop=1;jettySize=auto;html=1;entryX=0.5;entryY=0;entryDx=0;entryDy=0;" edge="1" parent="1" source="jcT04ShCUDrUNS0wLq2s-49" target="jcT04ShCUDrUNS0wLq2s-47">
          <mxGeometry relative="1" as="geometry">
            <Array as="points">
              <mxPoint x="1228" y="360" />
              <mxPoint x="1068" y="360" />
            </Array>
          </mxGeometry>
        </mxCell>
        <mxCell id="jcT04ShCUDrUNS0wLq2s-49" value="Рядок" style="shape=parallelogram;perimeter=parallelogramPerimeter;whiteSpace=wrap;html=1;fixedSize=1;" vertex="1" parent="1">
          <mxGeometry x="1192.5" y="415" width="70" height="40" as="geometry" />
        </mxCell>
        <mxCell id="jcT04ShCUDrUNS0wLq2s-54" value="Кінець" style="rounded=1;whiteSpace=wrap;html=1;arcSize=38;" vertex="1" parent="1">
          <mxGeometry x="1032.5" y="525" width="70" height="30" as="geometry" />
        </mxCell>
      </root>
    </mxGraphModel>
  </diagram>
</mxfile>
